<?xml version="1.0" standalone="no"?><!DOCTYPE svg PUBLIC "-//W3C//DTD SVG 1.1//EN" "http://www.w3.org/Graphics/SVG/1.1/DTD/svg11.dtd"><svg t="1730655351795" class="icon" viewBox="0 0 1317 1024" version="1.1" xmlns="http://www.w3.org/2000/svg" p-id="5399" xmlns:xlink="http://www.w3.org/1999/xlink" width="257.2265625" height="200"><path d="M178.834286 443.977143q0 29.110857-20.553143 47.981714-16.603429 14.848-50.834286 14.848l-9.728 0 0-125.732571 9.728 0q34.889143 0 50.834286 15.433143 20.553143 17.700571 20.553143 47.396571zM1193.691429 406.820571q0 29.696-36.571429 29.696l-10.825143 0 0-57.709714 11.410286 0q35.986286 0 35.986286 28.013714zM217.161143 443.977143q0-42.276571-28.598857-68.827429t-73.728-26.550857l-54.272 0 0 190.317714 54.272 0q42.276571 0 68.022857-21.723429 34.304-29.110857 34.304-73.142857zM234.276571 538.843429l37.156571 0 0-190.317714-37.156571 0 0 190.317714zM417.133714 481.133714q0-22.820571-11.702857-35.401143t-43.154286-23.990857q-16.603429-5.705143-22.601143-10.825143t-5.997714-13.165714q0-9.142857 7.68-15.140571t19.748571-5.997714q16.603429 0 30.281143 15.433143l19.456-25.161143q-23.405714-21.138286-56.027429-21.138286-25.161143 0-42.276571 15.725714t-17.115429 38.546286q0 19.968 10.313143 31.744t36.571429 20.845714q21.138286 7.460571 25.746286 10.825143 10.825143 6.875429 10.825143 19.456 0 11.410286-7.972571 19.163429t-20.553143 7.68q-27.428571 0-40.594286-25.161143l-23.990857 22.820571q25.161143 36.571429 65.682286 36.571429 29.110857 0 47.396571-17.408t18.285714-45.421714zM576 532.553143l0-44.032q-21.138286 21.138286-44.544 21.138286-28.013714 0-46.006857-18.578286t-17.993143-47.177143q0-27.428571 17.993143-46.592t44.251429-19.163429q24.576 0 46.299429 21.723429l0-44.032q-22.820571-11.410286-45.714286-11.410286-42.276571 0-71.68 28.891429t-29.403429 70.582857 29.110857 70.582857 71.460571 28.891429q23.990857 0 46.299429-10.825143zM1280 877.714286l0-301.129143q-37.156571 22.820571-82.578286 47.981714t-135.68 66.852571-188.269714 78.555429-238.592 76.873143-288.036571 67.437714l896.585143 0q14.848 0 25.746286-10.825143t10.825143-25.746286zM793.746286 445.147429q0-42.861714-30.281143-73.142857t-73.142857-30.281143-73.142857 30.281143-30.281143 73.142857 30.281143 73.142857 73.142857 30.281143 73.142857-30.281143 30.281143-73.142857zM880.566857 544.036571l82.285714-195.437714-40.594286 0-51.419429 128-50.834286-128-40.594286 0 81.115429 195.437714 19.968 0zM979.456 538.843429l105.179429 0 0-32.036571-68.022857 0 0-51.419429 65.682286 0 0-32.036571-65.682286 0 0-42.276571 68.022857 0 0-32.548571-105.179429 0 0 190.317714zM1202.834286 538.843429l45.714286 0-59.977143-80.018286q43.446857-9.142857 43.446857-53.686857 0-26.843429-17.700571-41.691429t-49.737143-14.848l-55.442286 0 0 190.317714 37.156571 0 0-75.995429 5.12 0zM1316.571429 149.723429l0 724.553143q0 32.036571-22.016 54.272t-53.394286 22.308571l-1165.677714 0q-31.451429 0-53.394286-22.308571t-22.016-54.272l0-724.553143q0-32.036571 22.016-54.272t53.394286-22.308571l1165.677714 0q31.451429 0 53.394286 22.308571t22.016 54.272z" fill="#444444" p-id="5400"></path></svg>